<svg width="173" height="19" viewBox="0 0 173 19" fill="none" xmlns="http://www.w3.org/2000/svg">
<path d="M14.056 14.4H6.256L4.768 18H0.784L8.272 1.2H12.112L19.624 18H15.544L14.056 14.4ZM12.832 11.448L10.168 5.016L7.504 11.448H12.832ZM24.0033 4.368H18.6273V1.2H33.2673V4.368H27.8913V18H24.0033V4.368ZM45.5794 14.4H37.7794L36.2914 18H32.3074L39.7954 1.2H43.6354L51.1474 18H47.0674L45.5794 14.4ZM44.3554 11.448L41.6914 5.016L39.0274 11.448H44.3554ZM60.6961 18.288C58.9841 18.288 57.4321 17.92 56.0401 17.184C54.6641 16.432 53.5761 15.4 52.7761 14.088C51.9921 12.76 51.6001 11.264 51.6001 9.6C51.6001 7.936 51.9921 6.448 52.7761 5.136C53.5761 3.808 54.6641 2.776 56.0401 2.04C57.4321 1.288 58.9921 0.912 60.7201 0.912C62.1761 0.912 63.4881 1.168 64.6561 1.68C65.8401 2.192 66.8321 2.928 67.6321 3.888L65.1361 6.192C64.0001 4.88 62.5921 4.224 60.9121 4.224C59.8721 4.224 58.9441 4.456 58.1281 4.92C57.3121 5.368 56.6721 6 56.2081 6.816C55.7601 7.632 55.5361 8.56 55.5361 9.6C55.5361 10.64 55.7601 11.568 56.2081 12.384C56.6721 13.2 57.3121 13.84 58.1281 14.304C58.9441 14.752 59.8721 14.976 60.9121 14.976C62.5921 14.976 64.0001 14.312 65.1361 12.984L67.6321 15.288C66.8321 16.264 65.8401 17.008 64.6561 17.52C63.4721 18.032 62.1521 18.288 60.6961 18.288ZM80.9935 14.4H73.1935L71.7055 18H67.7215L75.2095 1.2H79.0495L86.5615 18H82.4815L80.9935 14.4ZM79.7695 11.448L77.1055 5.016L74.4415 11.448H79.7695ZM88.3045 1.2H95.9365C97.7605 1.2 99.3685 1.552 100.761 2.256C102.169 2.944 103.257 3.92 104.025 5.184C104.809 6.448 105.201 7.92 105.201 9.6C105.201 11.28 104.809 12.752 104.025 14.016C103.257 15.28 102.169 16.264 100.761 16.968C99.3685 17.656 97.7605 18 95.9365 18H88.3045V1.2ZM95.7445 14.808C97.4245 14.808 98.7605 14.344 99.7525 13.416C100.761 12.472 101.265 11.2 101.265 9.6C101.265 8 100.761 6.736 99.7525 5.808C98.7605 4.864 97.4245 4.392 95.7445 4.392H92.1925V14.808H95.7445ZM108.133 1.2H112.021V18H108.133V1.2ZM131.416 1.2V18H128.224L119.848 7.8V18H116.008V1.2H119.224L127.576 11.4V1.2H131.416ZM150.798 1.2V18H146.91V11.112H139.278V18H135.39V1.2H139.278V7.824H146.91V1.2H150.798ZM162.909 18.288C161.165 18.288 159.589 17.912 158.181 17.16C156.789 16.408 155.693 15.376 154.893 14.064C154.109 12.736 153.717 11.248 153.717 9.6C153.717 7.952 154.109 6.472 154.893 5.16C155.693 3.832 156.789 2.792 158.181 2.04C159.589 1.288 161.165 0.912 162.909 0.912C164.653 0.912 166.221 1.288 167.613 2.04C169.005 2.792 170.101 3.832 170.901 5.16C171.701 6.472 172.101 7.952 172.101 9.6C172.101 11.248 171.701 12.736 170.901 14.064C170.101 15.376 169.005 16.408 167.613 17.16C166.221 17.912 164.653 18.288 162.909 18.288ZM162.909 14.976C163.901 14.976 164.797 14.752 165.597 14.304C166.397 13.84 167.021 13.2 167.469 12.384C167.933 11.568 168.165 10.64 168.165 9.6C168.165 8.56 167.933 7.632 167.469 6.816C167.021 6 166.397 5.368 165.597 4.92C164.797 4.456 163.901 4.224 162.909 4.224C161.917 4.224 161.021 4.456 160.221 4.92C159.421 5.368 158.789 6 158.325 6.816C157.877 7.632 157.653 8.56 157.653 9.6C157.653 10.64 157.877 11.568 158.325 12.384C158.789 13.2 159.421 13.84 160.221 14.304C161.021 14.752 161.917 14.976 162.909 14.976Z" fill="#39B549"/>
</svg>
